PathFileType	4	(X/Y/Z)	 s09c0201.trc
DataRate	CameraRate	NumFrames	NumMarkers	Units	OrigDataRate	OrigDataStartFrame	OrigNumFrames
200	200	5	50	mm	200	1	2000
Frame#	Time	racr			lacr			c7			jug			rlel			rdr			llel			ldr			s2			lic			ric			lasi			rasi			rpsi			lpsi			rgt			lgt			rth1			rth2			rth3			rth4			rlfc			rmfc			rsh1			rsh2			rsh3			rsh4			rlmal			rmmal			rcal			rtoe			rmt5			lth1			lth2			lth4			lth3			llfc			lmfc			llmal			lmmal			lcal			lmt5			lsh1			lsh2			lsh3			lsh4			ltoe			SBIKE			LBIKE			RBIKE			
		X1	Y1	Z1	X2	Y2	Z2	X3	Y3	Z3	X4	Y4	Z4	X5	Y5	Z5	X6	Y6	Z6	X7	Y7	Z7	X8	Y8	Z8	X9	Y9	Z9	X10	Y10	Z10	X11	Y11	Z11	X12	Y12	Z12	X13	Y13	Z13	X14	Y14	Z14	X15	Y15	Z15	X16	Y16	Z16	X17	Y17	Z17	X18	Y18	Z18	X19	Y19	Z19	X20	Y20	Z20	X21	Y21	Z21	X22	Y22	Z22	X23	Y23	Z23	X24	Y24	Z24	X25	Y25	Z25	X26	Y26	Z26	X27	Y27	Z27	X28	Y28	Z28	X29	Y29	Z29	X30	Y30	Z30	X31	Y31	Z31	X32	Y32	Z32	X33	Y33	Z33	X34	Y34	Z34	X35	Y35	Z35	X36	Y36	Z36	X37	Y37	Z37	X38	Y38	Z38	X39	Y39	Z39	X40	Y40	Z40	X41	Y41	Z41	X42	Y42	Z42	X43	Y43	Z43	X44	Y44	Z44	X45	Y45	Z45	X46	Y46	Z46	X47	Y47	Z47	X48	Y48	Z48	X49	Y49	Z49	X50	Y50	Z50	
1	0.0050	456.074949	1339.601133	-81.264537	468.184954	1314.747106	-420.705746	426.287156	1372.911297	-240.797223	429.230549	1238.361267	-248.052172	507.898560	1094.107705	-7.041532	693.828018	910.534043	-40.284544	455.540276	1041.777453	-503.709447	671.733503	908.427929	-451.148747	-6.262645	1103.396257	-238.441768	125.450587	1123.815573	-385.998053	137.970026	1122.469940	-92.118804	176.920997	1074.290463	-363.640776	190.165077	1073.953596	-113.857404	20.010322	1137.665149	-178.393170	11.682545	1145.308811	-288.073426	127.186868	969.627132	-50.167870	106.393345	1000.342506	-434.103229	215.974012	859.277372	-54.416126	284.954549	806.047502	-61.814812	313.682883	721.877793	-68.221458	310.145299	823.380012	-82.353737	347.581072	623.670026	-98.489159	328.994488	608.970910	-195.554896	263.605245	560.713660	-68.183491	220.943955	482.381248	-81.861843	145.770408	437.322773	-81.824030	240.680016	468.216996	-113.432255	74.900151	365.602800	-83.214606	83.012248	374.916699	-161.604645	-13.863736	364.012843	-121.710719	224.053117	248.582512	-125.187955	142.836821	266.661038	-59.943669	229.150684	937.420903	-434.054502	314.323912	932.712409	-429.488156	326.662736	965.203594	-412.960016	389.741035	882.497209	-429.185428	476.371915	821.823548	-411.727496	496.301237	812.362333	-312.068963	366.455945	475.859171	-408.214803	384.014117	483.866485	-337.976061	292.119526	449.319464	-371.053881	452.041812	381.596422	-432.868116	451.123030	724.606952	-431.381897	446.525724	638.640000	-419.600036	398.058618	564.065742	-416.984613	471.097255	634.196348	-388.874192	544.157525	384.423181	-363.864204	-65.303478	853.152910	-238.765998	20.764281	84.425002	-442.092692	21.229333	83.798204	-43.698514	
2	0.0100	456.146702	1339.551254	-81.346994	468.217732	1314.634384	-420.740263	426.350037	1372.844759	-240.860512	429.272730	1238.293092	-248.093430	507.918990	1094.100617	-6.998913	693.847556	910.551115	-40.214296	455.488591	1041.721371	-503.731119	671.744232	908.423650	-451.135982	-6.262820	1103.470570	-238.332317	125.403260	1123.896493	-385.911215	138.059528	1122.463682	-92.081580	176.866352	1074.347586	-363.641118	190.240934	1073.916928	-113.785954	20.074672	1137.717147	-178.325548	11.689307	1145.397202	-287.982565	127.164611	969.608486	-50.140203	106.322207	1000.560192	-434.112915	215.829103	859.152324	-54.397411	284.674578	805.790843	-61.789678	313.342354	721.630168	-68.165789	309.927473	823.073642	-82.339977	347.175649	623.353939	-98.390550	328.593192	608.703678	-195.493860	263.294178	560.258369	-68.143279	220.821500	481.778464	-81.839544	145.822794	436.569266	-81.839501	240.672152	467.665737	-113.348469	75.073910	364.638727	-83.214650	83.091701	373.982616	-161.569234	-13.620353	362.981907	-121.704012	224.359962	247.743180	-125.224197	143.099486	265.757315	-59.942507	229.177297	937.879583	-434.051641	314.424184	933.319543	-429.395333	326.640374	965.837324	-412.905647	389.893986	883.213663	-429.169799	476.594396	822.787319	-411.814429	496.553333	813.317948	-312.032938	366.337138	477.020884	-408.255104	383.943262	484.892368	-337.909472	291.967105	450.482048	-371.057002	451.789021	382.566406	-432.856662	451.268470	725.549403	-431.392905	446.621548	639.560360	-419.585977	398.042603	565.102570	-416.973420	471.174142	635.140421	-388.940222	543.875455	385.275582	-363.853209	-65.308772	853.157691	-238.762115	20.784920	84.567266	-441.994189	21.230384	83.787198	-43.704734	
3	0.0150	456.222236	1339.497540	-81.414812	468.254133	1314.562657	-420.776533	426.405824	1372.758026	-240.918586	429.299979	1238.207315	-248.180708	507.917299	1094.071261	-6.944952	693.859635	910.555123	-40.165785	455.448040	1041.651326	-503.761413	671.722766	908.428698	-451.128079	-6.271252	1103.559738	-238.235484	125.357742	1123.961915	-385.856978	138.156333	1122.437765	-92.033372	176.829463	1074.400769	-363.611298	190.274686	1073.858520	-113.789785	20.123543	1137.764430	-178.233863	11.626776	1145.529648	-287.837644	127.141201	969.610386	-50.102799	106.225844	1000.784812	-434.116785	215.679992	859.069406	-54.339065	284.429321	805.597413	-61.756473	312.955856	721.401978	-68.119735	309.726237	822.850845	-82.312807	346.735743	623.052698	-98.358519	328.187434	608.465268	-195.402382	262.991033	559.807754	-68.102375	220.750702	481.186492	-81.798437	145.838508	435.797226	-81.803210	240.611525	467.122245	-113.316311	75.253633	363.790700	-83.177595	83.457772	372.984832	-161.549721	-13.644302	361.701839	-121.746999	224.645830	246.901666	-125.251354	143.414171	264.822249	-59.955787	229.197212	938.293913	-434.044459	314.449673	933.922476	-429.392402	326.619880	966.391000	-412.871319	390.034050	883.987085	-429.185377	476.845100	823.650072	-411.805145	496.792562	814.208731	-312.026116	366.198124	477.993873	-408.250181	383.824679	485.816387	-337.705451	291.774668	451.610573	-371.067256	451.522365	383.508469	-432.860222	451.432346	726.444215	-431.368983	446.690840	640.511396	-419.602309	398.044196	566.109238	-416.989919	471.245064	636.047228	-388.876845	543.603966	386.029403	-363.830146	-65.318253	853.158036	-238.758703	20.774731	84.449985	-442.096541	21.235316	83.785793	-43.697721	
4	0.0200	456.309594	1339.448296	-81.491127	468.403248	1314.222535	-420.909402	426.608146	1372.704462	-241.131848	429.359535	1238.141091	-248.212613	508.417258	1093.938900	-6.640327	693.999229	910.567201	-40.229112	455.587973	1041.485152	-504.110012	671.710172	908.426699	-451.127164	-6.650840	1103.553849	-238.821620	125.313677	1124.035801	-385.759237	138.231012	1122.433896	-91.982613	176.792890	1074.445420	-363.590731	190.328323	1073.811435	-113.765933	21.497983	1137.221178	-178.394164	13.108179	1144.826857	-288.608601	127.137920	969.593198	-50.077241	106.125438	1000.993292	-434.118796	215.540459	858.985658	-54.253615	284.218757	805.431044	-61.734851	312.638214	721.133962	-68.070252	309.452698	822.511564	-82.468793	346.557480	622.477373	-98.194934	327.760414	608.210673	-195.306058	262.736305	559.323182	-68.055231	220.846070	480.597991	-81.574748	145.442626	435.646436	-81.404467	240.576598	466.565844	-113.303630	75.688679	362.860130	-82.630802	83.493976	372.095586	-161.506121	-13.409273	360.684919	-121.653137	224.959844	245.994763	-125.256712	143.713639	263.896556	-59.963947	229.189379	938.462974	-434.070504	314.492170	934.478313	-429.358179	326.351626	967.351684	-412.681427	390.134191	884.563442	-429.304507	477.084098	824.573044	-411.819672	496.727519	815.355798	-312.162125	365.808658	479.457700	-408.290269	384.336033	486.355085	-338.127464	291.588935	452.734195	-371.054517	451.239141	384.413586	-432.853611	451.579656	727.374455	-431.382220	446.911139	641.292332	-419.530825	398.007818	567.066819	-416.941184	471.333564	636.895485	-388.602555	543.342507	386.826423	-363.827101	-65.329790	853.168810	-238.768279	20.753128	84.459223	-442.080208	21.222840	83.788478	-43.697484	
5	0.0250	456.114261	1339.867248	-81.799591	468.317589	1314.484793	-420.967042	426.175676	1372.621661	-241.057809	429.419091	1238.074867	-248.244520	508.560568	1094.149482	-6.432493	693.655656	911.190234	-40.022186	455.368719	1041.762191	-504.021773	671.488624	908.672105	-451.211770	-6.717776	1103.498097	-238.648321	125.223773	1124.240376	-385.709766	138.217222	1122.568394	-91.950285	176.649705	1074.689347	-363.522228	190.196448	1073.985338	-113.934931	21.551228	1137.279606	-178.333493	13.041434	1144.939507	-288.521466	126.693226	969.999455	-50.051516	106.025799	1001.306343	-433.926554	215.141811	859.321382	-54.289204	283.899475	805.552652	-61.698792	312.233011	721.488064	-68.143747	309.110807	822.787837	-82.395335	345.839012	622.959027	-98.133024	327.137696	608.388117	-195.210285	262.207985	559.217533	-68.053207	220.653847	480.564221	-81.496348	145.502681	434.858436	-81.396354	240.429524	466.521383	-113.245453	76.243838	362.678204	-82.235938	83.742438	371.467689	-161.553642	-13.251354	359.666798	-121.749029	225.308928	245.496256	-125.177091	143.864160	263.288955	-59.923769	229.185000	939.091734	-434.008387	314.412636	935.236108	-429.162880	326.315906	967.882121	-412.688283	389.984215	885.411699	-429.300349	477.271411	825.405800	-411.943434	496.800321	816.590074	-312.027585	365.677673	480.432096	-408.349309	383.328012	488.190344	-337.402092	291.113925	454.072274	-371.319708	450.720081	385.707822	-433.147820	451.624470	728.517998	-431.562574	446.912312	642.489376	-419.489566	397.843744	568.286657	-416.897124	471.338334	638.046344	-388.608009	542.942211	387.863823	-363.882976	-65.318039	853.152276	-238.769372	20.679694	84.731320	-442.004049	21.234738	83.992975	-43.825776	
